<?xml version="1.0" encoding="UTF-8" standalone="no"?>
<!-- Created with Inkscape (http://www.inkscape.org/) -->

<svg
   xmlns:dc="http://purl.org/dc/elements/1.1/"
   xmlns:cc="http://creativecommons.org/ns#"
   xmlns:rdf="http://www.w3.org/1999/02/22-rdf-syntax-ns#"
   xmlns:svg="http://www.w3.org/2000/svg"
   xmlns="http://www.w3.org/2000/svg"
   xmlns:sodipodi="http://sodipodi.sourceforge.net/DTD/sodipodi-0.dtd"
   xmlns:inkscape="http://www.inkscape.org/namespaces/inkscape"
   version="1.1"
   id="svg2"
   xml:space="preserve"
   width="265.87326"
   height="247.86816"
   viewBox="0 0 265.87326 247.86815"
   sodipodi:docname="checklist.svg"
   inkscape:version="0.92.1 unknown"><metadata
     id="metadata8"><rdf:RDF><cc:Work
         rdf:about=""><dc:format>image/svg+xml</dc:format><dc:type
           rdf:resource="http://purl.org/dc/dcmitype/StillImage" /><dc:title></dc:title></cc:Work></rdf:RDF></metadata><defs
     id="defs6" /><sodipodi:namedview
     pagecolor="#ffffff"
     bordercolor="#666666"
     borderopacity="1"
     objecttolerance="10"
     gridtolerance="10"
     guidetolerance="10"
     inkscape:pageopacity="0"
     inkscape:pageshadow="2"
     inkscape:window-width="1366"
     inkscape:window-height="744"
     id="namedview4"
     showgrid="false"
     inkscape:zoom="0.44249997"
     inkscape:cx="-74.244791"
     inkscape:cy="120.74621"
     inkscape:window-x="0"
     inkscape:window-y="24"
     inkscape:window-maximized="1"
     inkscape:current-layer="g10"
     fit-margin-top="0"
     fit-margin-left="0"
     fit-margin-right="0"
     fit-margin-bottom="0" /><g
     id="g10"
     inkscape:groupmode="layer"
     inkscape:label="ink_ext_XXXXXX"
     transform="matrix(1.3333333,0,0,-1.3333333,-469.07337,841.24626)"><g
       id="g4703"
       transform="matrix(2.4230801,0,0,2.4230801,1154.2823,-1442.5629)"><path
         inkscape:connector-curvature="0"
         id="path48-3"
         style="fill:#e3e2e0;fill-opacity:1;fill-rule:nonzero;stroke:none;stroke-width:0.09999999"
         d="m -297.97866,792.69304 c -10.778,0 -19.515,8.73801 -19.515,19.516 0,10.778 8.737,19.515 19.515,19.515 10.778,0 19.516,-8.737 19.516,-19.515 0,-10.77799 -8.738,-19.516 -19.516,-19.516 z m 0,52.717 c -18.336,0 -33.202,-14.86499 -33.202,-33.201 0,-18.337 14.866,-33.20199 33.202,-33.20199 18.337,0 33.202,14.86499 33.202,33.20199 0,18.33601 -14.865,33.201 -33.202,33.201" /><path
         inkscape:connector-curvature="0"
         id="path86-6"
         style="fill:#49ad39;fill-opacity:1;fill-rule:nonzero;stroke:none;stroke-width:0.09999999"
         d="m -300.41366,790.36205 -29.038,29.038 10.502,10.50199 18.165,-18.16499 41.038,43.991 10.86,-10.13101 -51.527,-55.23499" /></g></g></svg>